<svg xmlns="http://www.w3.org/2000/svg" width="30" height="30">
  <defs>
    <clipPath id="a">
      <path d="M-237-180h800v600h-800z" clip-rule="evenodd"/>
    </clipPath>
  </defs>
  <g clip-path="url(#a)">
    <path fill="#F33" d="M15 30a15 15 0 1 0 0-30 15 15 0 0 0 0 30z"/>
  </g>
  <defs>
    <clipPath id="b">
      <path d="M-237-180h800v600h-800z" clip-rule="evenodd"/>
    </clipPath>
  </defs>
  <g clip-path="url(#b)">
    <path fill="#FFF" fill-rule="evenodd" d="M16 5h2.8c.2 0 .3 0 .3.2v18.4h-2v-6.9h-1.3l-4 7H9.5l4.4-7.3c-2.1-1-3.3-2.8-3.3-5.2C10.6 7 13 5 15.9 5zm0 10.1h1.2V6.6h-1.4c-1.5 0-3 1.2-3 4.4 0 3 1.5 4.1 3.2 4.1z"/>
  </g>
</svg>
