<?xml version="1.0" encoding="UTF-8" standalone="no"?>
<svg
   xmlns:dc="http://purl.org/dc/elements/1.1/"
   xmlns:cc="http://creativecommons.org/ns#"
   xmlns:rdf="http://www.w3.org/1999/02/22-rdf-syntax-ns#"
   xmlns:svg="http://www.w3.org/2000/svg"
   xmlns="http://www.w3.org/2000/svg"
   xmlns:sodipodi="http://sodipodi.sourceforge.net/DTD/sodipodi-0.dtd"
   xmlns:inkscape="http://www.inkscape.org/namespaces/inkscape"
   version="1.0"
   width="16.000013"
   height="16"
   viewBox="0 0 12.00001 12"
   preserveAspectRatio="xMidYMid meet"
   id="svg6"
   sodipodi:docname="checkMark.svg"
   inkscape:version="0.92.4 (5da689c313, 2019-01-14)">
  <metadata
     id="metadata12">
    <rdf:RDF>
      <cc:Work
         rdf:about="">
        <dc:format>image/svg+xml</dc:format>
        <dc:type
           rdf:resource="http://purl.org/dc/dcmitype/StillImage" />
        <dc:title></dc:title>
      </cc:Work>
    </rdf:RDF>
  </metadata>
  <defs
     id="defs10" />
  <sodipodi:namedview
     pagecolor="#ffffff"
     bordercolor="#666666"
     borderopacity="1"
     objecttolerance="10"
     gridtolerance="10"
     guidetolerance="10"
     inkscape:pageopacity="0"
     inkscape:pageshadow="2"
     inkscape:window-width="1878"
     inkscape:window-height="1066"
     id="namedview8"
     showgrid="false"
     inkscape:zoom="17.7"
     inkscape:cx="19.201449"
     inkscape:cy="9.5106414"
     inkscape:window-x="68"
     inkscape:window-y="64"
     inkscape:window-maximized="0"
     inkscape:current-layer="svg6"
     fit-margin-top="0"
     fit-margin-left="0"
     fit-margin-right="0"
     fit-margin-bottom="0"
     units="px" />
  <g
     transform="matrix(0.0011862,0,0,-9.3793667e-4,-0.00354799,12.00469)"
     id="g4"
     style="fill:#000000;stroke:none">
    <path
       d="m 9137,12666 c -526,-73 -961,-136 -966,-142 -4,-5 -1008,-1737 -2231,-3849 C 4717,6563 3532,4516 3307,4127 c -226,-389 -414,-704 -418,-700 -4,4 -181,566 -394,1248 -213,682 -389,1242 -391,1244 -2,2 -9,-1 -16,-6 -7,-6 -479,-268 -1048,-583 C 471,5015 4,4756 3,4756 2,4755 85,4588 187,4385 556,3651 770,3180 1187,2175 1623,1125 1684,983 1805,736 1954,431 2073,248 2196,131 2295,36 2362,5 2466,5 c 73,0 88,4 155,37 173,86 359,297 587,668 157,255 227,387 705,1335 751,1490 1180,2316 1780,3430 1493,2774 3013,5285 4384,7248 42,60 50,77 36,76 -10,-1 -449,-61 -976,-133 z"
       id="path2"
       inkscape:connector-curvature="0" />
  </g>
</svg>
