<svg xmlns="http://www.w3.org/2000/svg" viewBox="0 0 403 81">
  <path fill-rule="evenodd" d="M21.934 38.88a7.246 7.246 0 0 1-6.7-3.744q-2.194-3.745-2.194-10.074 0-7.279 2.414-10.76a7.8 7.8 0 0 1 6.8-3.481h3.939V38.88h-4.259zm4.256 34.941h9.593V.232H22.125q-8.767 0-13.849 6.363T3.193 25.578a32 32 0 0 0 2.223 12.354 17.316 17.316 0 0 0 6.416 8.113L.4 73.821h10.607l9.53-24.353h5.654v24.353zm39.833 0h9.212V20.138h-9.212v21.495H53.889V20.138h-9.275v53.683h9.275V51.162h12.134v22.659zM94.77 48.4q.667-7.365.921-18.2h8.322v33.562H91.689q.572-1.472 1.08-3.263A68.586 68.586 0 0 0 94.77 48.4zm16.676 42.256h6.671V63.762h-4.828V20.138h-24.65q-.319 13.13-.858 21.918A101.022 101.022 0 0 1 86.1 56.244a19.182 19.182 0 0 1-2.986 7.518h-2.48v26.894h6.671l1.4-16.835h21.346zM141.4 31.362q1.491 3.177 1.365 9.953h-11.942q.507-6.457 2.192-9.794t4.288-3.335q2.604 0 4.097 3.176zm7.655 28.694a18.177 18.177 0 0 1-4.034 3 10.048 10.048 0 0 1-4.924 1.239 7.464 7.464 0 0 1-6.575-3.626q-2.382-3.628-2.827-11.2h20.329a58.83 58.83 0 0 0 .032-13.235 30.421 30.421 0 0 0-2.6-9.529 14.155 14.155 0 0 0-4.733-5.718 11.672 11.672 0 0 0-12.864.053 16.71 16.71 0 0 0-4.987 5.559 30.471 30.471 0 0 0-3.24 8.735 53.513 53.513 0 0 0-1.144 11.594 55.148 55.148 0 0 0 1.112 11.54 28.826 28.826 0 0 0 3.3 8.841 15.808 15.808 0 0 0 5.5 5.612 14.787 14.787 0 0 0 7.687 1.959 13.922 13.922 0 0 0 7.306-1.8 16.992 16.992 0 0 0 4.447-3.6zm29.732 13.765h10.483L176.882 43.75l11.5-23.612h-8.259l-12.58 25.624V20.138h-9.275v53.683h9.275V45.974zm35.8-.635a13.421 13.421 0 0 0 3.717-3.494L216.4 60.8a11.51 11.51 0 0 1-3.018 2.882 6.484 6.484 0 0 1-3.589 1.142q-4.192 0-6.575-4.474t-2.383-13.528a39.677 39.677 0 0 1 .667-7.774 21.646 21.646 0 0 1 1.779-5.486 9.475 9.475 0 0 1 2.573-3.3 5.038 5.038 0 0 1 3.113-1.118 6.2 6.2 0 0 1 3.843 1.089 18.374 18.374 0 0 1 2.955 2.935l2.035-11.441a11.77 11.77 0 0 0-3.368-1.853 15.466 15.466 0 0 0-5.4-.794 13.549 13.549 0 0 0-7.083 1.959 17.26 17.26 0 0 0-5.622 5.612 29.981 29.981 0 0 0-3.685 8.947 48.571 48.571 0 0 0-1.342 11.858 47.556 47.556 0 0 0 1.3 11.753 29.022 29.022 0 0 0 3.558 8.577 15.9 15.9 0 0 0 5.368 5.294 13.228 13.228 0 0 0 6.734 1.8 11.065 11.065 0 0 0 6.326-1.694zm55.81.635h2.541V.232h-31.829v73.589h2.477V3.409H270.4v70.412zm32.813-.794a15.761 15.761 0 0 0 4.8-5.4 32.3 32.3 0 0 0 3.24-8.735 52.084 52.084 0 0 0 1.207-11.753 51.4 51.4 0 0 0-1.207-11.7 32.382 32.382 0 0 0-3.24-8.682 15.792 15.792 0 0 0-4.8-5.4 10.145 10.145 0 0 0-11.69 0 15.781 15.781 0 0 0-4.8 5.4 32.315 32.315 0 0 0-3.24 8.682 51.347 51.347 0 0 0-1.207 11.7 52.026 52.026 0 0 0 1.207 11.753 32.232 32.232 0 0 0 3.24 8.735 15.75 15.75 0 0 0 4.8 5.4 10.145 10.145 0 0 0 11.689 0zm-10.7-2.846a13.245 13.245 0 0 1-4.034-4.566 27.738 27.738 0 0 1-2.8-7.663 49.343 49.343 0 0 1-1.048-10.813 48.612 48.612 0 0 1 1.048-10.759 27.817 27.817 0 0 1 2.8-7.612A13.276 13.276 0 0 1 292.5 24.2a8.578 8.578 0 0 1 4.828-1.522 8.728 8.728 0 0 1 4.86 1.522 13.14 13.14 0 0 1 4.066 4.566 27.233 27.233 0 0 1 2.764 7.612 50.069 50.069 0 0 1 1.016 10.759 50.823 50.823 0 0 1-1.016 10.813 27.168 27.168 0 0 1-2.764 7.663 13.111 13.111 0 0 1-4.066 4.566 8.715 8.715 0 0 1-4.86 1.522 8.565 8.565 0 0 1-4.828-1.52zm48.791 3.64V20.562h-2.414v25.926a11.7 11.7 0 0 1-.987 1.012 13.369 13.369 0 0 1-1.874 1.434 12.272 12.272 0 0 1-2.668 1.274 9.985 9.985 0 0 1-3.3.531 7.173 7.173 0 0 1-6.162-3.081q-2.224-3.082-2.224-10.946v-16.15h-2.422V36.55q0 9.108 2.764 13.235a8.95 8.95 0 0 0 7.909 4.13 9.238 9.238 0 0 0 3.177-.529 12.729 12.729 0 0 0 2.6-1.271 15.72 15.72 0 0 0 1.97-1.482q.825-.739 1.207-1.165v24.353h2.423zm32.781-50.082v-3.177h-25.418v3.176h11.5v50.083h2.414V23.738h11.5zm9.243 44.7q-2.192-3.268-2.191-9.385 0-6.854 3.081-10.123t9.625-3.269h6.1v13.6a38.392 38.392 0 0 1-1.238 3.954 21.149 21.149 0 0 1-2 4.06 11.433 11.433 0 0 1-2.954 3.163 6.8 6.8 0 0 1-4.1 1.266 7.146 7.146 0 0 1-6.329-3.271zm19.536 5.387a32.8 32.8 0 0 1-.445-4.394q-.128-2.7-.127-5.665V36.021q0-8.47-2.859-12.494a9.384 9.384 0 0 0-8.132-4.023 12.455 12.455 0 0 0-6.829 1.8 19.52 19.52 0 0 0-4.288 3.494l.953 3.282a16.141 16.141 0 0 1 4.193-3.865 10.551 10.551 0 0 1 5.773-1.535 7.427 7.427 0 0 1 6.67 3.282q2.16 3.283 2.16 10.482V42.9h-6.289q-7.306 0-11.086 4.129t-3.78 12.176q0 7.519 2.827 11.594a8.907 8.907 0 0 0 7.719 4.076 8.083 8.083 0 0 0 4.1-1.006 10.618 10.618 0 0 0 3.017-2.594 15.72 15.72 0 0 0 2.128-3.547 33.9 33.9 0 0 0 1.434-3.86q0 3.39.19 5.824a39.5 39.5 0 0 0 .509 4.129h2.16z" data-name="Яндекс Почта"/>
</svg>
