<svg width="417" height="160" fill="none" xmlns="http://www.w3.org/2000/svg">
    <path d="M54.69 86.855v53.488h15.038V.705H47.293c-22.122 0-40.67 14.667-40.67 43.938 0 20.888 8.198 32.23 20.522 38.518L.955 140.345h17.44l23.783-53.488h12.51l.002-.002zm0-12.51h-8.01c-13.066 0-23.85-7.21-23.85-29.703 0-23.232 11.77-31.245 23.85-31.245h8.01v60.948z" fill="red"/>
    <path d="M220.52 127.898h-7.763V41.93h-45.724v8.38c0 26.194-.987 56.632-9.984 77.587h-6.043v31.8h13.685V140.34h42.21v19.354h13.618v-31.798l.001.002zm66.245 5.85l-3.514-11.706c-3.88 2.714-10.717 6.59-19.346 6.59-12.078 0-18.368-11.705-18.368-33.954h41.043v-8.437c0-33.402-10.723-45.666-27.177-45.666-20.89 0-29.7 23.048-29.7 54.658 0 30.32 12.505 46.53 32.846 46.53 9.798 0 17.993-3.14 24.215-8.014l.001-.001zM127.157 41.93v41.784h-22.675V41.93h-15.22v98.413h15.22V96.218h22.675v44.125h15.04V41.93h-15.04zM343.4 140.344h16.635l-27.91-52.134 24.4-46.28h-15.47L317.45 87.41V41.93h-15.22v98.413h15.22V91.356l25.95 48.988zm52.38 1.42c9 0 15.222-2.96 20.518-7.462l-3.51-11.337c-3.513 3.142-9.183 6.102-16.638 6.102-12.266 0-18.182-14.106-18.182-38.695 0-24.84 7.828-37.1 18.795-37.1 6.23 0 12.077 3.327 16.206 6.838l2.16-14.48c-4.317-2.713-9.372-5.053-18.182-5.053-23.05 0-34.938 19.72-34.938 50.59 0 33.59 12.69 50.598 33.77 50.598l.001-.001zm-198.063-13.865h-26.19c8.196-20.955 9.185-51.212 9.185-71.917v-1.724h17.005v73.641zm61.686-74.813c8.815 0 11.523 12.262 11.523 29.088h-25.202c.987-17.567 4.314-29.088 13.679-29.088z" fill="#000"/>
</svg>
