<svg width="335" height="143" fill="none" xmlns="http://www.w3.org/2000/svg">
    <path d="M51.529 140.344h9.796V.705H.195v139.64h9.736V8.714h41.597v131.628l.001.002zm56.882 1.974c17.006 0 30.072-19.1 30.072-51.767 0-33.77-13.066-50.593-30.072-50.593-17.015 0-30.078 18.98-30.078 51.76 0 33.593 13.063 50.6 30.078 50.6zm0-7.396c-11.525 0-20.895-13.124-20.895-43.756 0-29.882 9.37-43.563 20.895-43.563 11.52 0 20.888 12.695 20.888 43.564 0 29.705-9.37 43.757-20.888 43.757v-.002zm94.53 5.423V41.93h-9.185v44.312s-5.855 7.636-16.578 7.636c-9.18 0-14.85-5.67-14.85-19.717V41.93h-9.182v32.043c0 18.55 8.75 27.734 22.43 27.734 11.71 0 18.18-6.29 18.18-6.29v44.925h9.183l.002.003zm69.574-90.832v-7.58h-54.723v7.58h22.863v90.834h9.177V49.51h22.683v.003zm32.224 85.41c-9.428 0-15.464-8.01-15.464-21.874 0-17.193 7.823-24.65 24.035-24.65h10.537v27.178c-3.513 10.53-9.923 19.347-19.107 19.347l-.001-.001zm21.877 5.423H335c-1.175-3.695-2.153-11.278-2.153-18.114v-53.74c0-19.536-9.185-28.533-25.39-28.533-11.158 0-19.355 4.868-23.235 9.984l2.527 8.75c4.68-6.84 12.323-10.72 20.706-10.72 10.72 0 16.392 6.47 16.392 21.505v12.265h-10.722c-21.322 0-32.846 10.964-32.846 32.04 0 17.994 9.184 28.537 22.487 28.537 9.738 0 16.827-5.855 21.508-15.226.555 7.03 1.54 10.725 2.342 13.253v-.001z" fill="#000"/>
</svg>
